<svg width="242" height="63" viewBox="0 0 242 63" fill="none" xmlns="http://www.w3.org/2000/svg">
<path d="M6.70019 22.252C5.63619 22.252 4.57219 22.2147 3.50819 22.14C2.46285 22.084 1.37085 21.9347 0.232188 21.692V2.876C1.12819 2.708 2.10819 2.58667 3.17219 2.512C4.23619 2.41867 5.22552 2.372 6.14019 2.372C7.37219 2.372 8.50152 2.46533 9.52819 2.652C10.5735 2.82 11.4695 3.11867 12.2162 3.548C12.9629 3.97733 13.5415 4.54667 13.9522 5.256C14.3815 5.94667 14.5962 6.80533 14.5962 7.832C14.5962 9.38133 13.8495 10.604 12.3562 11.5C13.5882 11.9667 14.4282 12.6013 14.8762 13.404C15.3242 14.2067 15.5482 15.112 15.5482 16.12C15.5482 18.1547 14.8015 19.6853 13.3082 20.712C11.8335 21.7387 9.63085 22.252 6.70019 22.252ZM4.48819 13.544V18.556C4.80552 18.5933 5.15085 18.6213 5.52419 18.64C5.89752 18.6587 6.30819 18.668 6.75619 18.668C8.06285 18.668 9.11752 18.4813 9.92019 18.108C10.7229 17.7347 11.1242 17.044 11.1242 16.036C11.1242 15.14 10.7882 14.5053 10.1162 14.132C9.44419 13.74 8.48285 13.544 7.23219 13.544H4.48819ZM4.48819 10.212H6.61619C7.96019 10.212 8.92152 10.044 9.50019 9.708C10.0789 9.35333 10.3682 8.79333 10.3682 8.028C10.3682 7.244 10.0695 6.69333 9.47219 6.376C8.87485 6.05867 7.99752 5.9 6.84019 5.9C6.46685 5.9 6.06552 5.90933 5.63619 5.928C5.20685 5.928 4.82419 5.94667 4.48819 5.984V10.212ZM31.3367 21.496C30.6274 21.7013 29.7127 21.888 28.5927 22.056C27.4727 22.2427 26.2967 22.336 25.0647 22.336C23.814 22.336 22.7687 22.168 21.9287 21.832C21.1074 21.496 20.454 21.0293 19.9687 20.432C19.4834 19.816 19.138 19.088 18.9327 18.248C18.7274 17.408 18.6247 16.484 18.6247 15.476V7.272H22.7967V14.972C22.7967 16.316 22.974 17.2867 23.3287 17.884C23.6834 18.4813 24.346 18.78 25.3167 18.78C25.6154 18.78 25.9327 18.7707 26.2687 18.752C26.6047 18.7147 26.9034 18.6773 27.1647 18.64V7.272H31.3367V21.496ZM39.425 22H35.253V7.272H39.425V22ZM39.817 3.016C39.817 3.78133 39.565 4.388 39.061 4.836C38.5756 5.26533 37.997 5.48 37.325 5.48C36.653 5.48 36.065 5.26533 35.561 4.836C35.0756 4.388 34.833 3.78133 34.833 3.016C34.833 2.25067 35.0756 1.65333 35.561 1.224C36.065 0.775999 36.653 0.551999 37.325 0.551999C37.997 0.551999 38.5756 0.775999 39.061 1.224C39.565 1.65333 39.817 2.25067 39.817 3.016ZM49.2267 22.28C48.0134 22.2613 47.0241 22.1307 46.2587 21.888C45.5121 21.6453 44.9147 21.3093 44.4667 20.88C44.0374 20.432 43.7387 19.9 43.5707 19.284C43.4214 18.6493 43.3467 17.94 43.3467 17.156V0.943999L47.5187 0.271999V16.316C47.5187 16.6893 47.5467 17.0253 47.6027 17.324C47.6587 17.6227 47.7614 17.8747 47.9107 18.08C48.0787 18.2853 48.3121 18.4533 48.6107 18.584C48.9094 18.7147 49.3107 18.7987 49.8147 18.836L49.2267 22.28ZM55.7621 14.524C55.7621 15.812 56.0514 16.848 56.6301 17.632C57.2088 18.416 58.0674 18.808 59.2061 18.808C59.5794 18.808 59.9248 18.7987 60.2421 18.78C60.5594 18.7427 60.8208 18.7053 61.0261 18.668V11.08C60.7648 10.912 60.4194 10.772 59.9901 10.66C59.5794 10.548 59.1594 10.492 58.7301 10.492C56.7514 10.492 55.7621 11.836 55.7621 14.524ZM65.1981 21.524C64.8248 21.636 64.3954 21.748 63.9101 21.86C63.4248 21.9533 62.9114 22.0373 62.3701 22.112C61.8474 22.1867 61.3061 22.2427 60.7461 22.28C60.2048 22.336 59.6821 22.364 59.1781 22.364C57.9648 22.364 56.8821 22.1867 55.9301 21.832C54.9781 21.4773 54.1754 20.9733 53.5221 20.32C52.8688 19.648 52.3648 18.8453 52.0101 17.912C51.6741 16.96 51.5061 15.896 51.5061 14.72C51.5061 13.5253 51.6554 12.452 51.9541 11.5C52.2528 10.5293 52.6821 9.708 53.2421 9.036C53.8021 8.364 54.4834 7.85067 55.2861 7.496C56.1074 7.14133 57.0408 6.964 58.0861 6.964C58.6648 6.964 59.1781 7.02 59.6261 7.132C60.0928 7.244 60.5594 7.40267 61.0261 7.608V0.943999L65.1981 0.271999V21.524ZM75.1311 14.636C75.1311 13.572 75.2991 12.5733 75.6351 11.64C75.9898 10.688 76.4938 9.86667 77.1471 9.176C77.8004 8.46667 78.5938 7.90667 79.5271 7.496C80.4604 7.08533 81.5244 6.88 82.7191 6.88C83.5031 6.88 84.2218 6.95467 84.8751 7.104C85.5284 7.23467 86.1631 7.43067 86.7791 7.692L85.9111 11.024C85.5191 10.8747 85.0898 10.744 84.6231 10.632C84.1564 10.52 83.6338 10.464 83.0551 10.464C81.8231 10.464 80.8991 10.8467 80.2831 11.612C79.6858 12.3773 79.3871 13.3853 79.3871 14.636C79.3871 15.9613 79.6671 16.988 80.2271 17.716C80.8058 18.444 81.8044 18.808 83.2231 18.808C83.7271 18.808 84.2684 18.7613 84.8471 18.668C85.4258 18.5747 85.9578 18.4253 86.4431 18.22L87.0311 21.636C86.5458 21.8413 85.9391 22.0187 85.2111 22.168C84.4831 22.3173 83.6804 22.392 82.8031 22.392C81.4591 22.392 80.3018 22.196 79.3311 21.804C78.3604 21.3933 77.5578 20.8427 76.9231 20.152C76.3071 19.4613 75.8498 18.6493 75.5511 17.716C75.2711 16.764 75.1311 15.7373 75.1311 14.636ZM102.896 14.608C102.896 15.7653 102.728 16.8293 102.392 17.8C102.056 18.752 101.571 19.5733 100.936 20.264C100.301 20.936 99.5362 21.4587 98.6402 21.832C97.7628 22.2053 96.7735 22.392 95.6722 22.392C94.5895 22.392 93.6002 22.2053 92.7042 21.832C91.8268 21.4587 91.0708 20.936 90.4362 20.264C89.8015 19.5733 89.3068 18.752 88.9522 17.8C88.5975 16.8293 88.4202 15.7653 88.4202 14.608C88.4202 13.4507 88.5975 12.396 88.9522 11.444C89.3255 10.492 89.8295 9.68 90.4642 9.008C91.1175 8.336 91.8828 7.81333 92.7602 7.44C93.6562 7.06667 94.6268 6.88 95.6722 6.88C96.7362 6.88 97.7068 7.06667 98.5842 7.44C99.4802 7.81333 100.245 8.336 100.88 9.008C101.515 9.68 102.009 10.492 102.364 11.444C102.719 12.396 102.896 13.4507 102.896 14.608ZM98.6402 14.608C98.6402 13.32 98.3788 12.312 97.8562 11.584C97.3522 10.8373 96.6242 10.464 95.6722 10.464C94.7202 10.464 93.9828 10.8373 93.4602 11.584C92.9375 12.312 92.6762 13.32 92.6762 14.608C92.6762 15.896 92.9375 16.9227 93.4602 17.688C93.9828 18.4347 94.7202 18.808 95.6722 18.808C96.6242 18.808 97.3522 18.4347 97.8562 17.688C98.3788 16.9227 98.6402 15.896 98.6402 14.608ZM106.128 7.776C106.837 7.57067 107.752 7.384 108.872 7.216C109.992 7.02933 111.168 6.936 112.4 6.936C113.651 6.936 114.687 7.104 115.508 7.44C116.348 7.75733 117.011 8.21467 117.496 8.812C117.981 9.40933 118.327 10.1187 118.532 10.94C118.737 11.7613 118.84 12.676 118.84 13.684V22H114.668V14.188C114.668 12.844 114.491 11.892 114.136 11.332C113.781 10.772 113.119 10.492 112.148 10.492C111.849 10.492 111.532 10.5107 111.196 10.548C110.86 10.5667 110.561 10.5947 110.3 10.632V22H106.128V7.776ZM122.616 7.776C123.326 7.57067 124.24 7.384 125.36 7.216C126.48 7.02933 127.656 6.936 128.888 6.936C130.139 6.936 131.175 7.104 131.996 7.44C132.836 7.75733 133.499 8.21467 133.984 8.812C134.47 9.40933 134.815 10.1187 135.02 10.94C135.226 11.7613 135.328 12.676 135.328 13.684V22H131.156V14.188C131.156 12.844 130.979 11.892 130.624 11.332C130.27 10.772 129.607 10.492 128.636 10.492C128.338 10.492 128.02 10.5107 127.684 10.548C127.348 10.5667 127.05 10.5947 126.788 10.632V22H122.616V7.776ZM138.405 14.748C138.405 13.4413 138.601 12.3027 138.993 11.332C139.403 10.3427 139.935 9.52133 140.589 8.868C141.242 8.21467 141.989 7.72 142.829 7.384C143.687 7.048 144.565 6.88 145.461 6.88C147.551 6.88 149.203 7.524 150.417 8.812C151.63 10.0813 152.237 11.9573 152.237 14.44C152.237 14.6827 152.227 14.9533 152.209 15.252C152.19 15.532 152.171 15.784 152.153 16.008H142.689C142.782 16.8667 143.183 17.548 143.893 18.052C144.602 18.556 145.554 18.808 146.749 18.808C147.514 18.808 148.261 18.7427 148.989 18.612C149.735 18.4627 150.342 18.2853 150.809 18.08L151.369 21.468C151.145 21.58 150.846 21.692 150.473 21.804C150.099 21.916 149.679 22.0093 149.213 22.084C148.765 22.1773 148.279 22.252 147.757 22.308C147.234 22.364 146.711 22.392 146.189 22.392C144.863 22.392 143.706 22.196 142.717 21.804C141.746 21.412 140.934 20.88 140.281 20.208C139.646 19.5173 139.17 18.7053 138.853 17.772C138.554 16.8387 138.405 15.8307 138.405 14.748ZM148.205 13.152C148.186 12.7973 148.121 12.452 148.009 12.116C147.915 11.78 147.757 11.4813 147.533 11.22C147.327 10.9587 147.057 10.744 146.721 10.576C146.403 10.408 146.002 10.324 145.517 10.324C145.05 10.324 144.649 10.408 144.313 10.576C143.977 10.7253 143.697 10.9307 143.473 11.192C143.249 11.4533 143.071 11.7613 142.941 12.116C142.829 12.452 142.745 12.7973 142.689 13.152H148.205ZM154.756 14.636C154.756 13.572 154.924 12.5733 155.26 11.64C155.615 10.688 156.119 9.86667 156.772 9.176C157.425 8.46667 158.219 7.90667 159.152 7.496C160.085 7.08533 161.149 6.88 162.344 6.88C163.128 6.88 163.847 6.95467 164.5 7.104C165.153 7.23467 165.788 7.43067 166.404 7.692L165.536 11.024C165.144 10.8747 164.715 10.744 164.248 10.632C163.781 10.52 163.259 10.464 162.68 10.464C161.448 10.464 160.524 10.8467 159.908 11.612C159.311 12.3773 159.012 13.3853 159.012 14.636C159.012 15.9613 159.292 16.988 159.852 17.716C160.431 18.444 161.429 18.808 162.848 18.808C163.352 18.808 163.893 18.7613 164.472 18.668C165.051 18.5747 165.583 18.4253 166.068 18.22L166.656 21.636C166.171 21.8413 165.564 22.0187 164.836 22.168C164.108 22.3173 163.305 22.392 162.428 22.392C161.084 22.392 159.927 22.196 158.956 21.804C157.985 21.3933 157.183 20.8427 156.548 20.152C155.932 19.4613 155.475 18.6493 155.176 17.716C154.896 16.764 154.756 15.7373 154.756 14.636ZM169.316 3.604L173.488 2.932V7.272H178.5V10.744H173.488V15.924C173.488 16.8013 173.637 17.5013 173.936 18.024C174.253 18.5467 174.879 18.808 175.812 18.808C176.26 18.808 176.717 18.7707 177.184 18.696C177.669 18.6027 178.108 18.4813 178.5 18.332L179.088 21.58C178.584 21.7853 178.024 21.9627 177.408 22.112C176.792 22.2613 176.036 22.336 175.14 22.336C174.001 22.336 173.059 22.1867 172.312 21.888C171.565 21.5707 170.968 21.1413 170.52 20.6C170.072 20.04 169.755 19.368 169.568 18.584C169.4 17.8 169.316 16.932 169.316 15.98V3.604ZM186.07 22H181.898V7.272H186.07V22ZM186.462 3.016C186.462 3.78133 186.21 4.388 185.706 4.836C185.22 5.26533 184.642 5.48 183.97 5.48C183.298 5.48 182.71 5.26533 182.206 4.836C181.72 4.388 181.478 3.78133 181.478 3.016C181.478 2.25067 181.72 1.65333 182.206 1.224C182.71 0.775999 183.298 0.551999 183.97 0.551999C184.642 0.551999 185.22 0.775999 185.706 1.224C186.21 1.65333 186.462 2.25067 186.462 3.016ZM203.767 14.608C203.767 15.7653 203.599 16.8293 203.263 17.8C202.927 18.752 202.442 19.5733 201.807 20.264C201.173 20.936 200.407 21.4587 199.511 21.832C198.634 22.2053 197.645 22.392 196.543 22.392C195.461 22.392 194.471 22.2053 193.575 21.832C192.698 21.4587 191.942 20.936 191.307 20.264C190.673 19.5733 190.178 18.752 189.823 17.8C189.469 16.8293 189.291 15.7653 189.291 14.608C189.291 13.4507 189.469 12.396 189.823 11.444C190.197 10.492 190.701 9.68 191.335 9.008C191.989 8.336 192.754 7.81333 193.631 7.44C194.527 7.06667 195.498 6.88 196.543 6.88C197.607 6.88 198.578 7.06667 199.455 7.44C200.351 7.81333 201.117 8.336 201.751 9.008C202.386 9.68 202.881 10.492 203.235 11.444C203.59 12.396 203.767 13.4507 203.767 14.608ZM199.511 14.608C199.511 13.32 199.25 12.312 198.727 11.584C198.223 10.8373 197.495 10.464 196.543 10.464C195.591 10.464 194.854 10.8373 194.331 11.584C193.809 12.312 193.547 13.32 193.547 14.608C193.547 15.896 193.809 16.9227 194.331 17.688C194.854 18.4347 195.591 18.808 196.543 18.808C197.495 18.808 198.223 18.4347 198.727 17.688C199.25 16.9227 199.511 15.896 199.511 14.608ZM206.999 7.776C207.708 7.57067 208.623 7.384 209.743 7.216C210.863 7.02933 212.039 6.936 213.271 6.936C214.522 6.936 215.558 7.104 216.379 7.44C217.219 7.75733 217.882 8.21467 218.367 8.812C218.852 9.40933 219.198 10.1187 219.403 10.94C219.608 11.7613 219.711 12.676 219.711 13.684V22H215.539V14.188C215.539 12.844 215.362 11.892 215.007 11.332C214.652 10.772 213.99 10.492 213.019 10.492C212.72 10.492 212.403 10.5107 212.067 10.548C211.731 10.5667 211.432 10.5947 211.171 10.632V22H206.999V7.776ZM227.715 19.004C228.481 19.004 229.022 18.9293 229.339 18.78C229.657 18.6307 229.815 18.3413 229.815 17.912C229.815 17.576 229.61 17.2867 229.199 17.044C228.789 16.7827 228.163 16.4933 227.323 16.176C226.67 15.9333 226.073 15.6813 225.531 15.42C225.009 15.1587 224.561 14.8507 224.187 14.496C223.814 14.1227 223.525 13.684 223.319 13.18C223.114 12.676 223.011 12.0693 223.011 11.36C223.011 9.97867 223.525 8.88667 224.551 8.084C225.578 7.28133 226.987 6.88 228.779 6.88C229.675 6.88 230.534 6.964 231.355 7.132C232.177 7.28133 232.83 7.44933 233.315 7.636L232.587 10.884C232.102 10.716 231.57 10.5667 230.991 10.436C230.431 10.3053 229.797 10.24 229.087 10.24C227.781 10.24 227.127 10.604 227.127 11.332C227.127 11.5 227.155 11.6493 227.211 11.78C227.267 11.9107 227.379 12.0413 227.547 12.172C227.715 12.284 227.939 12.4147 228.219 12.564C228.518 12.6947 228.891 12.844 229.339 13.012C230.254 13.348 231.01 13.684 231.607 14.02C232.205 14.3373 232.671 14.692 233.007 15.084C233.362 15.4573 233.605 15.8773 233.735 16.344C233.885 16.8107 233.959 17.352 233.959 17.968C233.959 19.424 233.409 20.5253 232.307 21.272C231.225 22.0187 229.685 22.392 227.687 22.392C226.381 22.392 225.289 22.28 224.411 22.056C223.553 21.832 222.955 21.6453 222.619 21.496L223.319 18.108C224.029 18.388 224.757 18.612 225.503 18.78C226.25 18.9293 226.987 19.004 227.715 19.004ZM241.165 19.788C241.165 20.628 240.895 21.272 240.353 21.72C239.831 22.1493 239.233 22.364 238.561 22.364C237.889 22.364 237.283 22.1493 236.741 21.72C236.219 21.272 235.957 20.628 235.957 19.788C235.957 18.948 236.219 18.3133 236.741 17.884C237.283 17.436 237.889 17.212 238.561 17.212C239.233 17.212 239.831 17.436 240.353 17.884C240.895 18.3133 241.165 18.948 241.165 19.788ZM41.7002 62.252C40.6362 62.252 39.5722 62.2147 38.5082 62.14C37.4629 62.084 36.3709 61.9347 35.2322 61.692V42.876C36.1282 42.708 37.1082 42.5867 38.1722 42.512C39.2362 42.4187 40.2255 42.372 41.1402 42.372C42.3722 42.372 43.5015 42.4653 44.5282 42.652C45.5735 42.82 46.4695 43.1187 47.2162 43.548C47.9629 43.9773 48.5415 44.5467 48.9522 45.256C49.3815 45.9467 49.5962 46.8053 49.5962 47.832C49.5962 49.3813 48.8495 50.604 47.3562 51.5C48.5882 51.9667 49.4282 52.6013 49.8762 53.404C50.3242 54.2067 50.5482 55.112 50.5482 56.12C50.5482 58.1547 49.8015 59.6853 48.3082 60.712C46.8335 61.7387 44.6309 62.252 41.7002 62.252ZM39.4882 53.544V58.556C39.8055 58.5933 40.1509 58.6213 40.5242 58.64C40.8975 58.6587 41.3082 58.668 41.7562 58.668C43.0629 58.668 44.1175 58.4813 44.9202 58.108C45.7229 57.7347 46.1242 57.044 46.1242 56.036C46.1242 55.14 45.7882 54.5053 45.1162 54.132C44.4442 53.74 43.4829 53.544 42.2322 53.544H39.4882ZM39.4882 50.212H41.6162C42.9602 50.212 43.9215 50.044 44.5002 49.708C45.0789 49.3533 45.3682 48.7933 45.3682 48.028C45.3682 47.244 45.0695 46.6933 44.4722 46.376C43.8749 46.0587 42.9975 45.9 41.8402 45.9C41.4669 45.9 41.0655 45.9093 40.6362 45.928C40.2069 45.928 39.8242 45.9467 39.4882 45.984V50.212ZM66.3367 61.496C65.6274 61.7013 64.7127 61.888 63.5927 62.056C62.4727 62.2427 61.2967 62.336 60.0647 62.336C58.814 62.336 57.7687 62.168 56.9287 61.832C56.1074 61.496 55.454 61.0293 54.9687 60.432C54.4834 59.816 54.138 59.088 53.9327 58.248C53.7274 57.408 53.6247 56.484 53.6247 55.476V47.272H57.7967V54.972C57.7967 56.316 57.974 57.2867 58.3287 57.884C58.6834 58.4813 59.346 58.78 60.3167 58.78C60.6154 58.78 60.9327 58.7707 61.2687 58.752C61.6047 58.7147 61.9034 58.6773 62.1647 58.64V47.272H66.3367V61.496ZM74.425 62H70.253V47.272H74.425V62ZM74.817 43.016C74.817 43.7813 74.565 44.388 74.061 44.836C73.5756 45.2653 72.997 45.48 72.325 45.48C71.653 45.48 71.065 45.2653 70.561 44.836C70.0756 44.388 69.833 43.7813 69.833 43.016C69.833 42.2507 70.0756 41.6533 70.561 41.224C71.065 40.776 71.653 40.552 72.325 40.552C72.997 40.552 73.5756 40.776 74.061 41.224C74.565 41.6533 74.817 42.2507 74.817 43.016ZM84.2267 62.28C83.0134 62.2613 82.0241 62.1307 81.2587 61.888C80.5121 61.6453 79.9147 61.3093 79.4667 60.88C79.0374 60.432 78.7387 59.9 78.5707 59.284C78.4214 58.6493 78.3467 57.94 78.3467 57.156V40.944L82.5187 40.272V56.316C82.5187 56.6893 82.5467 57.0253 82.6027 57.324C82.6587 57.6227 82.7614 57.8747 82.9107 58.08C83.0787 58.2853 83.3121 58.4533 83.6107 58.584C83.9094 58.7147 84.3107 58.7987 84.8147 58.836L84.2267 62.28ZM90.7621 54.524C90.7621 55.812 91.0514 56.848 91.6301 57.632C92.2088 58.416 93.0674 58.808 94.2061 58.808C94.5794 58.808 94.9248 58.7987 95.2421 58.78C95.5594 58.7427 95.8208 58.7053 96.0261 58.668V51.08C95.7648 50.912 95.4194 50.772 94.9901 50.66C94.5794 50.548 94.1594 50.492 93.7301 50.492C91.7514 50.492 90.7621 51.836 90.7621 54.524ZM100.198 61.524C99.8248 61.636 99.3954 61.748 98.9101 61.86C98.4248 61.9533 97.9114 62.0373 97.3701 62.112C96.8474 62.1867 96.3061 62.2427 95.7461 62.28C95.2048 62.336 94.6821 62.364 94.1781 62.364C92.9648 62.364 91.8821 62.1867 90.9301 61.832C89.9781 61.4773 89.1754 60.9733 88.5221 60.32C87.8688 59.648 87.3648 58.8453 87.0101 57.912C86.6741 56.96 86.5061 55.896 86.5061 54.72C86.5061 53.5253 86.6554 52.452 86.9541 51.5C87.2528 50.5293 87.6821 49.708 88.2421 49.036C88.8021 48.364 89.4834 47.8507 90.2861 47.496C91.1074 47.1413 92.0408 46.964 93.0861 46.964C93.6648 46.964 94.1781 47.02 94.6261 47.132C95.0928 47.244 95.5594 47.4027 96.0261 47.608V40.944L100.198 40.272V61.524ZM119.791 53.544C119.418 54.9627 119.016 56.372 118.587 57.772C118.176 59.172 117.738 60.5813 117.271 62H114.023C113.687 61.216 113.323 60.2827 112.931 59.2C112.539 58.1173 112.128 56.9413 111.699 55.672C111.288 54.384 110.859 53.0307 110.411 51.612C109.982 50.1747 109.562 48.728 109.151 47.272H113.547C113.696 47.944 113.855 48.6813 114.023 49.484C114.21 50.268 114.396 51.08 114.583 51.92C114.788 52.76 114.994 53.6093 115.199 54.468C115.423 55.308 115.647 56.12 115.871 56.904C116.114 56.0827 116.347 55.2427 116.571 54.384C116.814 53.5253 117.038 52.6853 117.243 51.864C117.467 51.024 117.672 50.2213 117.859 49.456C118.064 48.672 118.242 47.944 118.391 47.272H121.415C121.564 47.944 121.732 48.672 121.919 49.456C122.106 50.2213 122.302 51.024 122.507 51.864C122.712 52.6853 122.927 53.5253 123.151 54.384C123.375 55.2427 123.608 56.0827 123.851 56.904C124.075 56.12 124.299 55.308 124.523 54.468C124.747 53.6093 124.952 52.76 125.139 51.92C125.344 51.08 125.531 50.268 125.699 49.484C125.886 48.6813 126.054 47.944 126.203 47.272H130.543C130.132 48.728 129.703 50.1747 129.255 51.612C128.826 53.0307 128.396 54.384 127.967 55.672C127.556 56.9413 127.146 58.1173 126.735 59.2C126.343 60.2827 125.979 61.216 125.643 62H122.395C121.928 60.5813 121.471 59.172 121.023 57.772C120.575 56.372 120.164 54.9627 119.791 53.544ZM131.76 54.748C131.76 53.4413 131.956 52.3027 132.348 51.332C132.759 50.3427 133.291 49.5213 133.944 48.868C134.597 48.2147 135.344 47.72 136.184 47.384C137.043 47.048 137.92 46.88 138.816 46.88C140.907 46.88 142.559 47.524 143.772 48.812C144.985 50.0813 145.592 51.9573 145.592 54.44C145.592 54.6827 145.583 54.9533 145.564 55.252C145.545 55.532 145.527 55.784 145.508 56.008H136.044C136.137 56.8667 136.539 57.548 137.248 58.052C137.957 58.556 138.909 58.808 140.104 58.808C140.869 58.808 141.616 58.7427 142.344 58.612C143.091 58.4627 143.697 58.2853 144.164 58.08L144.724 61.468C144.5 61.58 144.201 61.692 143.828 61.804C143.455 61.916 143.035 62.0093 142.568 62.084C142.12 62.1773 141.635 62.252 141.112 62.308C140.589 62.364 140.067 62.392 139.544 62.392C138.219 62.392 137.061 62.196 136.072 61.804C135.101 61.412 134.289 60.88 133.636 60.208C133.001 59.5173 132.525 58.7053 132.208 57.772C131.909 56.8387 131.76 55.8307 131.76 54.748ZM141.56 53.152C141.541 52.7973 141.476 52.452 141.364 52.116C141.271 51.78 141.112 51.4813 140.888 51.22C140.683 50.9587 140.412 50.744 140.076 50.576C139.759 50.408 139.357 50.324 138.872 50.324C138.405 50.324 138.004 50.408 137.668 50.576C137.332 50.7253 137.052 50.9307 136.828 51.192C136.604 51.4533 136.427 51.7613 136.296 52.116C136.184 52.452 136.1 52.7973 136.044 53.152H141.56ZM154.44 59.088C154.85 59.088 155.242 59.0787 155.616 59.06C155.989 59.0413 156.288 59.0133 156.512 58.976V55.812C156.344 55.7747 156.092 55.7373 155.756 55.7C155.42 55.6627 155.112 55.644 154.832 55.644C154.44 55.644 154.066 55.672 153.712 55.728C153.376 55.7653 153.077 55.8493 152.816 55.98C152.554 56.1107 152.349 56.288 152.2 56.512C152.05 56.736 151.976 57.016 151.976 57.352C151.976 58.0053 152.19 58.4627 152.62 58.724C153.068 58.9667 153.674 59.088 154.44 59.088ZM154.104 46.88C155.336 46.88 156.362 47.02 157.184 47.3C158.005 47.58 158.658 47.9813 159.144 48.504C159.648 49.0267 160.002 49.6613 160.208 50.408C160.413 51.1547 160.516 51.9853 160.516 52.9V61.58C159.918 61.7107 159.088 61.86 158.024 62.028C156.96 62.2147 155.672 62.308 154.16 62.308C153.208 62.308 152.34 62.224 151.556 62.056C150.79 61.888 150.128 61.6173 149.568 61.244C149.008 60.852 148.578 60.348 148.28 59.732C147.981 59.116 147.832 58.36 147.832 57.464C147.832 56.6053 148 55.8773 148.336 55.28C148.69 54.6827 149.157 54.2067 149.736 53.852C150.314 53.4973 150.977 53.2453 151.724 53.096C152.47 52.928 153.245 52.844 154.048 52.844C154.589 52.844 155.065 52.872 155.476 52.928C155.905 52.9653 156.25 53.0213 156.512 53.096V52.704C156.512 51.9947 156.297 51.4253 155.868 50.996C155.438 50.5667 154.692 50.352 153.628 50.352C152.918 50.352 152.218 50.408 151.528 50.52C150.837 50.6133 150.24 50.7533 149.736 50.94L149.204 47.58C149.446 47.5053 149.745 47.4307 150.1 47.356C150.473 47.2627 150.874 47.188 151.304 47.132C151.733 47.0573 152.181 47.0013 152.648 46.964C153.133 46.908 153.618 46.88 154.104 46.88ZM170.168 62.28C168.955 62.2613 167.965 62.1307 167.2 61.888C166.453 61.6453 165.856 61.3093 165.408 60.88C164.979 60.432 164.68 59.9 164.512 59.284C164.363 58.6493 164.288 57.94 164.288 57.156V40.944L168.46 40.272V56.316C168.46 56.6893 168.488 57.0253 168.544 57.324C168.6 57.6227 168.703 57.8747 168.852 58.08C169.02 58.2853 169.253 58.4533 169.552 58.584C169.851 58.7147 170.252 58.7987 170.756 58.836L170.168 62.28ZM173.008 43.604L177.18 42.932V47.272H182.192V50.744H177.18V55.924C177.18 56.8013 177.329 57.5013 177.628 58.024C177.945 58.5467 178.57 58.808 179.504 58.808C179.952 58.808 180.409 58.7707 180.876 58.696C181.361 58.6027 181.8 58.4813 182.192 58.332L182.78 61.58C182.276 61.7853 181.716 61.9627 181.1 62.112C180.484 62.2613 179.728 62.336 178.832 62.336C177.693 62.336 176.75 62.1867 176.004 61.888C175.257 61.5707 174.66 61.1413 174.212 60.6C173.764 60.04 173.446 59.368 173.26 58.584C173.092 57.8 173.008 56.932 173.008 55.98V43.604ZM185.589 62V40.944L189.761 40.272V47.328C190.041 47.2347 190.396 47.1507 190.825 47.076C191.273 46.9827 191.702 46.936 192.113 46.936C193.308 46.936 194.297 47.104 195.081 47.44C195.884 47.7573 196.518 48.2147 196.985 48.812C197.47 49.4093 197.806 50.1187 197.993 50.94C198.198 51.7613 198.301 52.676 198.301 53.684V62H194.129V54.188C194.129 52.844 193.952 51.892 193.597 51.332C193.261 50.772 192.626 50.492 191.693 50.492C191.32 50.492 190.965 50.5293 190.629 50.604C190.312 50.66 190.022 50.7253 189.761 50.8V62H185.589ZM206.165 59.788C206.165 60.628 205.895 61.272 205.353 61.72C204.831 62.1493 204.233 62.364 203.561 62.364C202.889 62.364 202.283 62.1493 201.741 61.72C201.219 61.272 200.957 60.628 200.957 59.788C200.957 58.948 201.219 58.3133 201.741 57.884C202.283 57.436 202.889 57.212 203.561 57.212C204.233 57.212 204.831 57.436 205.353 57.884C205.895 58.3133 206.165 58.948 206.165 59.788Z" fill="#8135F9"/>
<path d="M6.70019 22.252C5.63619 22.252 4.57219 22.2147 3.50819 22.14C2.46285 22.084 1.37085 21.9347 0.232188 21.692V2.876C1.12819 2.708 2.10819 2.58667 3.17219 2.512C4.23619 2.41867 5.22552 2.372 6.14019 2.372C7.37219 2.372 8.50152 2.46533 9.52819 2.652C10.5735 2.82 11.4695 3.11867 12.2162 3.548C12.9629 3.97733 13.5415 4.54667 13.9522 5.256C14.3815 5.94667 14.5962 6.80533 14.5962 7.832C14.5962 9.38133 13.8495 10.604 12.3562 11.5C13.5882 11.9667 14.4282 12.6013 14.8762 13.404C15.3242 14.2067 15.5482 15.112 15.5482 16.12C15.5482 18.1547 14.8015 19.6853 13.3082 20.712C11.8335 21.7387 9.63085 22.252 6.70019 22.252ZM4.48819 13.544V18.556C4.80552 18.5933 5.15085 18.6213 5.52419 18.64C5.89752 18.6587 6.30819 18.668 6.75619 18.668C8.06285 18.668 9.11752 18.4813 9.92019 18.108C10.7229 17.7347 11.1242 17.044 11.1242 16.036C11.1242 15.14 10.7882 14.5053 10.1162 14.132C9.44419 13.74 8.48285 13.544 7.23219 13.544H4.48819ZM4.48819 10.212H6.61619C7.96019 10.212 8.92152 10.044 9.50019 9.708C10.0789 9.35333 10.3682 8.79333 10.3682 8.028C10.3682 7.244 10.0695 6.69333 9.47219 6.376C8.87485 6.05867 7.99752 5.9 6.84019 5.9C6.46685 5.9 6.06552 5.90933 5.63619 5.928C5.20685 5.928 4.82419 5.94667 4.48819 5.984V10.212ZM31.3367 21.496C30.6274 21.7013 29.7127 21.888 28.5927 22.056C27.4727 22.2427 26.2967 22.336 25.0647 22.336C23.814 22.336 22.7687 22.168 21.9287 21.832C21.1074 21.496 20.454 21.0293 19.9687 20.432C19.4834 19.816 19.138 19.088 18.9327 18.248C18.7274 17.408 18.6247 16.484 18.6247 15.476V7.272H22.7967V14.972C22.7967 16.316 22.974 17.2867 23.3287 17.884C23.6834 18.4813 24.346 18.78 25.3167 18.78C25.6154 18.78 25.9327 18.7707 26.2687 18.752C26.6047 18.7147 26.9034 18.6773 27.1647 18.64V7.272H31.3367V21.496ZM39.425 22H35.253V7.272H39.425V22ZM39.817 3.016C39.817 3.78133 39.565 4.388 39.061 4.836C38.5756 5.26533 37.997 5.48 37.325 5.48C36.653 5.48 36.065 5.26533 35.561 4.836C35.0756 4.388 34.833 3.78133 34.833 3.016C34.833 2.25067 35.0756 1.65333 35.561 1.224C36.065 0.775999 36.653 0.551999 37.325 0.551999C37.997 0.551999 38.5756 0.775999 39.061 1.224C39.565 1.65333 39.817 2.25067 39.817 3.016ZM49.2267 22.28C48.0134 22.2613 47.0241 22.1307 46.2587 21.888C45.5121 21.6453 44.9147 21.3093 44.4667 20.88C44.0374 20.432 43.7387 19.9 43.5707 19.284C43.4214 18.6493 43.3467 17.94 43.3467 17.156V0.943999L47.5187 0.271999V16.316C47.5187 16.6893 47.5467 17.0253 47.6027 17.324C47.6587 17.6227 47.7614 17.8747 47.9107 18.08C48.0787 18.2853 48.3121 18.4533 48.6107 18.584C48.9094 18.7147 49.3107 18.7987 49.8147 18.836L49.2267 22.28ZM55.7621 14.524C55.7621 15.812 56.0514 16.848 56.6301 17.632C57.2088 18.416 58.0674 18.808 59.2061 18.808C59.5794 18.808 59.9248 18.7987 60.2421 18.78C60.5594 18.7427 60.8208 18.7053 61.0261 18.668V11.08C60.7648 10.912 60.4194 10.772 59.9901 10.66C59.5794 10.548 59.1594 10.492 58.7301 10.492C56.7514 10.492 55.7621 11.836 55.7621 14.524ZM65.1981 21.524C64.8248 21.636 64.3954 21.748 63.9101 21.86C63.4248 21.9533 62.9114 22.0373 62.3701 22.112C61.8474 22.1867 61.3061 22.2427 60.7461 22.28C60.2048 22.336 59.6821 22.364 59.1781 22.364C57.9648 22.364 56.8821 22.1867 55.9301 21.832C54.9781 21.4773 54.1754 20.9733 53.5221 20.32C52.8688 19.648 52.3648 18.8453 52.0101 17.912C51.6741 16.96 51.5061 15.896 51.5061 14.72C51.5061 13.5253 51.6554 12.452 51.9541 11.5C52.2528 10.5293 52.6821 9.708 53.2421 9.036C53.8021 8.364 54.4834 7.85067 55.2861 7.496C56.1074 7.14133 57.0408 6.964 58.0861 6.964C58.6648 6.964 59.1781 7.02 59.6261 7.132C60.0928 7.244 60.5594 7.40267 61.0261 7.608V0.943999L65.1981 0.271999V21.524ZM75.1311 14.636C75.1311 13.572 75.2991 12.5733 75.6351 11.64C75.9898 10.688 76.4938 9.86667 77.1471 9.176C77.8004 8.46667 78.5938 7.90667 79.5271 7.496C80.4604 7.08533 81.5244 6.88 82.7191 6.88C83.5031 6.88 84.2218 6.95467 84.8751 7.104C85.5284 7.23467 86.1631 7.43067 86.7791 7.692L85.9111 11.024C85.5191 10.8747 85.0898 10.744 84.6231 10.632C84.1564 10.52 83.6338 10.464 83.0551 10.464C81.8231 10.464 80.8991 10.8467 80.2831 11.612C79.6858 12.3773 79.3871 13.3853 79.3871 14.636C79.3871 15.9613 79.6671 16.988 80.2271 17.716C80.8058 18.444 81.8044 18.808 83.2231 18.808C83.7271 18.808 84.2684 18.7613 84.8471 18.668C85.4258 18.5747 85.9578 18.4253 86.4431 18.22L87.0311 21.636C86.5458 21.8413 85.9391 22.0187 85.2111 22.168C84.4831 22.3173 83.6804 22.392 82.8031 22.392C81.4591 22.392 80.3018 22.196 79.3311 21.804C78.3604 21.3933 77.5578 20.8427 76.9231 20.152C76.3071 19.4613 75.8498 18.6493 75.5511 17.716C75.2711 16.764 75.1311 15.7373 75.1311 14.636ZM102.896 14.608C102.896 15.7653 102.728 16.8293 102.392 17.8C102.056 18.752 101.571 19.5733 100.936 20.264C100.301 20.936 99.5362 21.4587 98.6402 21.832C97.7628 22.2053 96.7735 22.392 95.6722 22.392C94.5895 22.392 93.6002 22.2053 92.7042 21.832C91.8268 21.4587 91.0708 20.936 90.4362 20.264C89.8015 19.5733 89.3068 18.752 88.9522 17.8C88.5975 16.8293 88.4202 15.7653 88.4202 14.608C88.4202 13.4507 88.5975 12.396 88.9522 11.444C89.3255 10.492 89.8295 9.68 90.4642 9.008C91.1175 8.336 91.8828 7.81333 92.7602 7.44C93.6562 7.06667 94.6268 6.88 95.6722 6.88C96.7362 6.88 97.7068 7.06667 98.5842 7.44C99.4802 7.81333 100.245 8.336 100.88 9.008C101.515 9.68 102.009 10.492 102.364 11.444C102.719 12.396 102.896 13.4507 102.896 14.608ZM98.6402 14.608C98.6402 13.32 98.3788 12.312 97.8562 11.584C97.3522 10.8373 96.6242 10.464 95.6722 10.464C94.7202 10.464 93.9828 10.8373 93.4602 11.584C92.9375 12.312 92.6762 13.32 92.6762 14.608C92.6762 15.896 92.9375 16.9227 93.4602 17.688C93.9828 18.4347 94.7202 18.808 95.6722 18.808C96.6242 18.808 97.3522 18.4347 97.8562 17.688C98.3788 16.9227 98.6402 15.896 98.6402 14.608ZM106.128 7.776C106.837 7.57067 107.752 7.384 108.872 7.216C109.992 7.02933 111.168 6.936 112.4 6.936C113.651 6.936 114.687 7.104 115.508 7.44C116.348 7.75733 117.011 8.21467 117.496 8.812C117.981 9.40933 118.327 10.1187 118.532 10.94C118.737 11.7613 118.84 12.676 118.84 13.684V22H114.668V14.188C114.668 12.844 114.491 11.892 114.136 11.332C113.781 10.772 113.119 10.492 112.148 10.492C111.849 10.492 111.532 10.5107 111.196 10.548C110.86 10.5667 110.561 10.5947 110.3 10.632V22H106.128V7.776ZM122.616 7.776C123.326 7.57067 124.24 7.384 125.36 7.216C126.48 7.02933 127.656 6.936 128.888 6.936C130.139 6.936 131.175 7.104 131.996 7.44C132.836 7.75733 133.499 8.21467 133.984 8.812C134.47 9.40933 134.815 10.1187 135.02 10.94C135.226 11.7613 135.328 12.676 135.328 13.684V22H131.156V14.188C131.156 12.844 130.979 11.892 130.624 11.332C130.27 10.772 129.607 10.492 128.636 10.492C128.338 10.492 128.02 10.5107 127.684 10.548C127.348 10.5667 127.05 10.5947 126.788 10.632V22H122.616V7.776ZM138.405 14.748C138.405 13.4413 138.601 12.3027 138.993 11.332C139.403 10.3427 139.935 9.52133 140.589 8.868C141.242 8.21467 141.989 7.72 142.829 7.384C143.687 7.048 144.565 6.88 145.461 6.88C147.551 6.88 149.203 7.524 150.417 8.812C151.63 10.0813 152.237 11.9573 152.237 14.44C152.237 14.6827 152.227 14.9533 152.209 15.252C152.19 15.532 152.171 15.784 152.153 16.008H142.689C142.782 16.8667 143.183 17.548 143.893 18.052C144.602 18.556 145.554 18.808 146.749 18.808C147.514 18.808 148.261 18.7427 148.989 18.612C149.735 18.4627 150.342 18.2853 150.809 18.08L151.369 21.468C151.145 21.58 150.846 21.692 150.473 21.804C150.099 21.916 149.679 22.0093 149.213 22.084C148.765 22.1773 148.279 22.252 147.757 22.308C147.234 22.364 146.711 22.392 146.189 22.392C144.863 22.392 143.706 22.196 142.717 21.804C141.746 21.412 140.934 20.88 140.281 20.208C139.646 19.5173 139.17 18.7053 138.853 17.772C138.554 16.8387 138.405 15.8307 138.405 14.748ZM148.205 13.152C148.186 12.7973 148.121 12.452 148.009 12.116C147.915 11.78 147.757 11.4813 147.533 11.22C147.327 10.9587 147.057 10.744 146.721 10.576C146.403 10.408 146.002 10.324 145.517 10.324C145.05 10.324 144.649 10.408 144.313 10.576C143.977 10.7253 143.697 10.9307 143.473 11.192C143.249 11.4533 143.071 11.7613 142.941 12.116C142.829 12.452 142.745 12.7973 142.689 13.152H148.205ZM154.756 14.636C154.756 13.572 154.924 12.5733 155.26 11.64C155.615 10.688 156.119 9.86667 156.772 9.176C157.425 8.46667 158.219 7.90667 159.152 7.496C160.085 7.08533 161.149 6.88 162.344 6.88C163.128 6.88 163.847 6.95467 164.5 7.104C165.153 7.23467 165.788 7.43067 166.404 7.692L165.536 11.024C165.144 10.8747 164.715 10.744 164.248 10.632C163.781 10.52 163.259 10.464 162.68 10.464C161.448 10.464 160.524 10.8467 159.908 11.612C159.311 12.3773 159.012 13.3853 159.012 14.636C159.012 15.9613 159.292 16.988 159.852 17.716C160.431 18.444 161.429 18.808 162.848 18.808C163.352 18.808 163.893 18.7613 164.472 18.668C165.051 18.5747 165.583 18.4253 166.068 18.22L166.656 21.636C166.171 21.8413 165.564 22.0187 164.836 22.168C164.108 22.3173 163.305 22.392 162.428 22.392C161.084 22.392 159.927 22.196 158.956 21.804C157.985 21.3933 157.183 20.8427 156.548 20.152C155.932 19.4613 155.475 18.6493 155.176 17.716C154.896 16.764 154.756 15.7373 154.756 14.636ZM169.316 3.604L173.488 2.932V7.272H178.5V10.744H173.488V15.924C173.488 16.8013 173.637 17.5013 173.936 18.024C174.253 18.5467 174.879 18.808 175.812 18.808C176.26 18.808 176.717 18.7707 177.184 18.696C177.669 18.6027 178.108 18.4813 178.5 18.332L179.088 21.58C178.584 21.7853 178.024 21.9627 177.408 22.112C176.792 22.2613 176.036 22.336 175.14 22.336C174.001 22.336 173.059 22.1867 172.312 21.888C171.565 21.5707 170.968 21.1413 170.52 20.6C170.072 20.04 169.755 19.368 169.568 18.584C169.4 17.8 169.316 16.932 169.316 15.98V3.604ZM186.07 22H181.898V7.272H186.07V22ZM186.462 3.016C186.462 3.78133 186.21 4.388 185.706 4.836C185.22 5.26533 184.642 5.48 183.97 5.48C183.298 5.48 182.71 5.26533 182.206 4.836C181.72 4.388 181.478 3.78133 181.478 3.016C181.478 2.25067 181.72 1.65333 182.206 1.224C182.71 0.775999 183.298 0.551999 183.97 0.551999C184.642 0.551999 185.22 0.775999 185.706 1.224C186.21 1.65333 186.462 2.25067 186.462 3.016ZM203.767 14.608C203.767 15.7653 203.599 16.8293 203.263 17.8C202.927 18.752 202.442 19.5733 201.807 20.264C201.173 20.936 200.407 21.4587 199.511 21.832C198.634 22.2053 197.645 22.392 196.543 22.392C195.461 22.392 194.471 22.2053 193.575 21.832C192.698 21.4587 191.942 20.936 191.307 20.264C190.673 19.5733 190.178 18.752 189.823 17.8C189.469 16.8293 189.291 15.7653 189.291 14.608C189.291 13.4507 189.469 12.396 189.823 11.444C190.197 10.492 190.701 9.68 191.335 9.008C191.989 8.336 192.754 7.81333 193.631 7.44C194.527 7.06667 195.498 6.88 196.543 6.88C197.607 6.88 198.578 7.06667 199.455 7.44C200.351 7.81333 201.117 8.336 201.751 9.008C202.386 9.68 202.881 10.492 203.235 11.444C203.59 12.396 203.767 13.4507 203.767 14.608ZM199.511 14.608C199.511 13.32 199.25 12.312 198.727 11.584C198.223 10.8373 197.495 10.464 196.543 10.464C195.591 10.464 194.854 10.8373 194.331 11.584C193.809 12.312 193.547 13.32 193.547 14.608C193.547 15.896 193.809 16.9227 194.331 17.688C194.854 18.4347 195.591 18.808 196.543 18.808C197.495 18.808 198.223 18.4347 198.727 17.688C199.25 16.9227 199.511 15.896 199.511 14.608ZM206.999 7.776C207.708 7.57067 208.623 7.384 209.743 7.216C210.863 7.02933 212.039 6.936 213.271 6.936C214.522 6.936 215.558 7.104 216.379 7.44C217.219 7.75733 217.882 8.21467 218.367 8.812C218.852 9.40933 219.198 10.1187 219.403 10.94C219.608 11.7613 219.711 12.676 219.711 13.684V22H215.539V14.188C215.539 12.844 215.362 11.892 215.007 11.332C214.652 10.772 213.99 10.492 213.019 10.492C212.72 10.492 212.403 10.5107 212.067 10.548C211.731 10.5667 211.432 10.5947 211.171 10.632V22H206.999V7.776ZM227.715 19.004C228.481 19.004 229.022 18.9293 229.339 18.78C229.657 18.6307 229.815 18.3413 229.815 17.912C229.815 17.576 229.61 17.2867 229.199 17.044C228.789 16.7827 228.163 16.4933 227.323 16.176C226.67 15.9333 226.073 15.6813 225.531 15.42C225.009 15.1587 224.561 14.8507 224.187 14.496C223.814 14.1227 223.525 13.684 223.319 13.18C223.114 12.676 223.011 12.0693 223.011 11.36C223.011 9.97867 223.525 8.88667 224.551 8.084C225.578 7.28133 226.987 6.88 228.779 6.88C229.675 6.88 230.534 6.964 231.355 7.132C232.177 7.28133 232.83 7.44933 233.315 7.636L232.587 10.884C232.102 10.716 231.57 10.5667 230.991 10.436C230.431 10.3053 229.797 10.24 229.087 10.24C227.781 10.24 227.127 10.604 227.127 11.332C227.127 11.5 227.155 11.6493 227.211 11.78C227.267 11.9107 227.379 12.0413 227.547 12.172C227.715 12.284 227.939 12.4147 228.219 12.564C228.518 12.6947 228.891 12.844 229.339 13.012C230.254 13.348 231.01 13.684 231.607 14.02C232.205 14.3373 232.671 14.692 233.007 15.084C233.362 15.4573 233.605 15.8773 233.735 16.344C233.885 16.8107 233.959 17.352 233.959 17.968C233.959 19.424 233.409 20.5253 232.307 21.272C231.225 22.0187 229.685 22.392 227.687 22.392C226.381 22.392 225.289 22.28 224.411 22.056C223.553 21.832 222.955 21.6453 222.619 21.496L223.319 18.108C224.029 18.388 224.757 18.612 225.503 18.78C226.25 18.9293 226.987 19.004 227.715 19.004ZM241.165 19.788C241.165 20.628 240.895 21.272 240.353 21.72C239.831 22.1493 239.233 22.364 238.561 22.364C237.889 22.364 237.283 22.1493 236.741 21.72C236.219 21.272 235.957 20.628 235.957 19.788C235.957 18.948 236.219 18.3133 236.741 17.884C237.283 17.436 237.889 17.212 238.561 17.212C239.233 17.212 239.831 17.436 240.353 17.884C240.895 18.3133 241.165 18.948 241.165 19.788ZM41.7002 62.252C40.6362 62.252 39.5722 62.2147 38.5082 62.14C37.4629 62.084 36.3709 61.9347 35.2322 61.692V42.876C36.1282 42.708 37.1082 42.5867 38.1722 42.512C39.2362 42.4187 40.2255 42.372 41.1402 42.372C42.3722 42.372 43.5015 42.4653 44.5282 42.652C45.5735 42.82 46.4695 43.1187 47.2162 43.548C47.9629 43.9773 48.5415 44.5467 48.9522 45.256C49.3815 45.9467 49.5962 46.8053 49.5962 47.832C49.5962 49.3813 48.8495 50.604 47.3562 51.5C48.5882 51.9667 49.4282 52.6013 49.8762 53.404C50.3242 54.2067 50.5482 55.112 50.5482 56.12C50.5482 58.1547 49.8015 59.6853 48.3082 60.712C46.8335 61.7387 44.6309 62.252 41.7002 62.252ZM39.4882 53.544V58.556C39.8055 58.5933 40.1509 58.6213 40.5242 58.64C40.8975 58.6587 41.3082 58.668 41.7562 58.668C43.0629 58.668 44.1175 58.4813 44.9202 58.108C45.7229 57.7347 46.1242 57.044 46.1242 56.036C46.1242 55.14 45.7882 54.5053 45.1162 54.132C44.4442 53.74 43.4829 53.544 42.2322 53.544H39.4882ZM39.4882 50.212H41.6162C42.9602 50.212 43.9215 50.044 44.5002 49.708C45.0789 49.3533 45.3682 48.7933 45.3682 48.028C45.3682 47.244 45.0695 46.6933 44.4722 46.376C43.8749 46.0587 42.9975 45.9 41.8402 45.9C41.4669 45.9 41.0655 45.9093 40.6362 45.928C40.2069 45.928 39.8242 45.9467 39.4882 45.984V50.212ZM66.3367 61.496C65.6274 61.7013 64.7127 61.888 63.5927 62.056C62.4727 62.2427 61.2967 62.336 60.0647 62.336C58.814 62.336 57.7687 62.168 56.9287 61.832C56.1074 61.496 55.454 61.0293 54.9687 60.432C54.4834 59.816 54.138 59.088 53.9327 58.248C53.7274 57.408 53.6247 56.484 53.6247 55.476V47.272H57.7967V54.972C57.7967 56.316 57.974 57.2867 58.3287 57.884C58.6834 58.4813 59.346 58.78 60.3167 58.78C60.6154 58.78 60.9327 58.7707 61.2687 58.752C61.6047 58.7147 61.9034 58.6773 62.1647 58.64V47.272H66.3367V61.496ZM74.425 62H70.253V47.272H74.425V62ZM74.817 43.016C74.817 43.7813 74.565 44.388 74.061 44.836C73.5756 45.2653 72.997 45.48 72.325 45.48C71.653 45.48 71.065 45.2653 70.561 44.836C70.0756 44.388 69.833 43.7813 69.833 43.016C69.833 42.2507 70.0756 41.6533 70.561 41.224C71.065 40.776 71.653 40.552 72.325 40.552C72.997 40.552 73.5756 40.776 74.061 41.224C74.565 41.6533 74.817 42.2507 74.817 43.016ZM84.2267 62.28C83.0134 62.2613 82.0241 62.1307 81.2587 61.888C80.5121 61.6453 79.9147 61.3093 79.4667 60.88C79.0374 60.432 78.7387 59.9 78.5707 59.284C78.4214 58.6493 78.3467 57.94 78.3467 57.156V40.944L82.5187 40.272V56.316C82.5187 56.6893 82.5467 57.0253 82.6027 57.324C82.6587 57.6227 82.7614 57.8747 82.9107 58.08C83.0787 58.2853 83.3121 58.4533 83.6107 58.584C83.9094 58.7147 84.3107 58.7987 84.8147 58.836L84.2267 62.28ZM90.7621 54.524C90.7621 55.812 91.0514 56.848 91.6301 57.632C92.2088 58.416 93.0674 58.808 94.2061 58.808C94.5794 58.808 94.9248 58.7987 95.2421 58.78C95.5594 58.7427 95.8208 58.7053 96.0261 58.668V51.08C95.7648 50.912 95.4194 50.772 94.9901 50.66C94.5794 50.548 94.1594 50.492 93.7301 50.492C91.7514 50.492 90.7621 51.836 90.7621 54.524ZM100.198 61.524C99.8248 61.636 99.3954 61.748 98.9101 61.86C98.4248 61.9533 97.9114 62.0373 97.3701 62.112C96.8474 62.1867 96.3061 62.2427 95.7461 62.28C95.2048 62.336 94.6821 62.364 94.1781 62.364C92.9648 62.364 91.8821 62.1867 90.9301 61.832C89.9781 61.4773 89.1754 60.9733 88.5221 60.32C87.8688 59.648 87.3648 58.8453 87.0101 57.912C86.6741 56.96 86.5061 55.896 86.5061 54.72C86.5061 53.5253 86.6554 52.452 86.9541 51.5C87.2528 50.5293 87.6821 49.708 88.2421 49.036C88.8021 48.364 89.4834 47.8507 90.2861 47.496C91.1074 47.1413 92.0408 46.964 93.0861 46.964C93.6648 46.964 94.1781 47.02 94.6261 47.132C95.0928 47.244 95.5594 47.4027 96.0261 47.608V40.944L100.198 40.272V61.524ZM119.791 53.544C119.418 54.9627 119.016 56.372 118.587 57.772C118.176 59.172 117.738 60.5813 117.271 62H114.023C113.687 61.216 113.323 60.2827 112.931 59.2C112.539 58.1173 112.128 56.9413 111.699 55.672C111.288 54.384 110.859 53.0307 110.411 51.612C109.982 50.1747 109.562 48.728 109.151 47.272H113.547C113.696 47.944 113.855 48.6813 114.023 49.484C114.21 50.268 114.396 51.08 114.583 51.92C114.788 52.76 114.994 53.6093 115.199 54.468C115.423 55.308 115.647 56.12 115.871 56.904C116.114 56.0827 116.347 55.2427 116.571 54.384C116.814 53.5253 117.038 52.6853 117.243 51.864C117.467 51.024 117.672 50.2213 117.859 49.456C118.064 48.672 118.242 47.944 118.391 47.272H121.415C121.564 47.944 121.732 48.672 121.919 49.456C122.106 50.2213 122.302 51.024 122.507 51.864C122.712 52.6853 122.927 53.5253 123.151 54.384C123.375 55.2427 123.608 56.0827 123.851 56.904C124.075 56.12 124.299 55.308 124.523 54.468C124.747 53.6093 124.952 52.76 125.139 51.92C125.344 51.08 125.531 50.268 125.699 49.484C125.886 48.6813 126.054 47.944 126.203 47.272H130.543C130.132 48.728 129.703 50.1747 129.255 51.612C128.826 53.0307 128.396 54.384 127.967 55.672C127.556 56.9413 127.146 58.1173 126.735 59.2C126.343 60.2827 125.979 61.216 125.643 62H122.395C121.928 60.5813 121.471 59.172 121.023 57.772C120.575 56.372 120.164 54.9627 119.791 53.544ZM131.76 54.748C131.76 53.4413 131.956 52.3027 132.348 51.332C132.759 50.3427 133.291 49.5213 133.944 48.868C134.597 48.2147 135.344 47.72 136.184 47.384C137.043 47.048 137.92 46.88 138.816 46.88C140.907 46.88 142.559 47.524 143.772 48.812C144.985 50.0813 145.592 51.9573 145.592 54.44C145.592 54.6827 145.583 54.9533 145.564 55.252C145.545 55.532 145.527 55.784 145.508 56.008H136.044C136.137 56.8667 136.539 57.548 137.248 58.052C137.957 58.556 138.909 58.808 140.104 58.808C140.869 58.808 141.616 58.7427 142.344 58.612C143.091 58.4627 143.697 58.2853 144.164 58.08L144.724 61.468C144.5 61.58 144.201 61.692 143.828 61.804C143.455 61.916 143.035 62.0093 142.568 62.084C142.12 62.1773 141.635 62.252 141.112 62.308C140.589 62.364 140.067 62.392 139.544 62.392C138.219 62.392 137.061 62.196 136.072 61.804C135.101 61.412 134.289 60.88 133.636 60.208C133.001 59.5173 132.525 58.7053 132.208 57.772C131.909 56.8387 131.76 55.8307 131.76 54.748ZM141.56 53.152C141.541 52.7973 141.476 52.452 141.364 52.116C141.271 51.78 141.112 51.4813 140.888 51.22C140.683 50.9587 140.412 50.744 140.076 50.576C139.759 50.408 139.357 50.324 138.872 50.324C138.405 50.324 138.004 50.408 137.668 50.576C137.332 50.7253 137.052 50.9307 136.828 51.192C136.604 51.4533 136.427 51.7613 136.296 52.116C136.184 52.452 136.1 52.7973 136.044 53.152H141.56ZM154.44 59.088C154.85 59.088 155.242 59.0787 155.616 59.06C155.989 59.0413 156.288 59.0133 156.512 58.976V55.812C156.344 55.7747 156.092 55.7373 155.756 55.7C155.42 55.6627 155.112 55.644 154.832 55.644C154.44 55.644 154.066 55.672 153.712 55.728C153.376 55.7653 153.077 55.8493 152.816 55.98C152.554 56.1107 152.349 56.288 152.2 56.512C152.05 56.736 151.976 57.016 151.976 57.352C151.976 58.0053 152.19 58.4627 152.62 58.724C153.068 58.9667 153.674 59.088 154.44 59.088ZM154.104 46.88C155.336 46.88 156.362 47.02 157.184 47.3C158.005 47.58 158.658 47.9813 159.144 48.504C159.648 49.0267 160.002 49.6613 160.208 50.408C160.413 51.1547 160.516 51.9853 160.516 52.9V61.58C159.918 61.7107 159.088 61.86 158.024 62.028C156.96 62.2147 155.672 62.308 154.16 62.308C153.208 62.308 152.34 62.224 151.556 62.056C150.79 61.888 150.128 61.6173 149.568 61.244C149.008 60.852 148.578 60.348 148.28 59.732C147.981 59.116 147.832 58.36 147.832 57.464C147.832 56.6053 148 55.8773 148.336 55.28C148.69 54.6827 149.157 54.2067 149.736 53.852C150.314 53.4973 150.977 53.2453 151.724 53.096C152.47 52.928 153.245 52.844 154.048 52.844C154.589 52.844 155.065 52.872 155.476 52.928C155.905 52.9653 156.25 53.0213 156.512 53.096V52.704C156.512 51.9947 156.297 51.4253 155.868 50.996C155.438 50.5667 154.692 50.352 153.628 50.352C152.918 50.352 152.218 50.408 151.528 50.52C150.837 50.6133 150.24 50.7533 149.736 50.94L149.204 47.58C149.446 47.5053 149.745 47.4307 150.1 47.356C150.473 47.2627 150.874 47.188 151.304 47.132C151.733 47.0573 152.181 47.0013 152.648 46.964C153.133 46.908 153.618 46.88 154.104 46.88ZM170.168 62.28C168.955 62.2613 167.965 62.1307 167.2 61.888C166.453 61.6453 165.856 61.3093 165.408 60.88C164.979 60.432 164.68 59.9 164.512 59.284C164.363 58.6493 164.288 57.94 164.288 57.156V40.944L168.46 40.272V56.316C168.46 56.6893 168.488 57.0253 168.544 57.324C168.6 57.6227 168.703 57.8747 168.852 58.08C169.02 58.2853 169.253 58.4533 169.552 58.584C169.851 58.7147 170.252 58.7987 170.756 58.836L170.168 62.28ZM173.008 43.604L177.18 42.932V47.272H182.192V50.744H177.18V55.924C177.18 56.8013 177.329 57.5013 177.628 58.024C177.945 58.5467 178.57 58.808 179.504 58.808C179.952 58.808 180.409 58.7707 180.876 58.696C181.361 58.6027 181.8 58.4813 182.192 58.332L182.78 61.58C182.276 61.7853 181.716 61.9627 181.1 62.112C180.484 62.2613 179.728 62.336 178.832 62.336C177.693 62.336 176.75 62.1867 176.004 61.888C175.257 61.5707 174.66 61.1413 174.212 60.6C173.764 60.04 173.446 59.368 173.26 58.584C173.092 57.8 173.008 56.932 173.008 55.98V43.604ZM185.589 62V40.944L189.761 40.272V47.328C190.041 47.2347 190.396 47.1507 190.825 47.076C191.273 46.9827 191.702 46.936 192.113 46.936C193.308 46.936 194.297 47.104 195.081 47.44C195.884 47.7573 196.518 48.2147 196.985 48.812C197.47 49.4093 197.806 50.1187 197.993 50.94C198.198 51.7613 198.301 52.676 198.301 53.684V62H194.129V54.188C194.129 52.844 193.952 51.892 193.597 51.332C193.261 50.772 192.626 50.492 191.693 50.492C191.32 50.492 190.965 50.5293 190.629 50.604C190.312 50.66 190.022 50.7253 189.761 50.8V62H185.589ZM206.165 59.788C206.165 60.628 205.895 61.272 205.353 61.72C204.831 62.1493 204.233 62.364 203.561 62.364C202.889 62.364 202.283 62.1493 201.741 61.72C201.219 61.272 200.957 60.628 200.957 59.788C200.957 58.948 201.219 58.3133 201.741 57.884C202.283 57.436 202.889 57.212 203.561 57.212C204.233 57.212 204.831 57.436 205.353 57.884C205.895 58.3133 206.165 58.948 206.165 59.788Z" fill="url(#paint0_linear_1_1500)" fill-opacity="0.8"/>
<defs>
<linearGradient id="paint0_linear_1_1500" x1="-318.743" y1="-61.0447" x2="-296.125" y2="127.879" gradientUnits="userSpaceOnUse">
<stop offset="0.0219789" stop-color="white" stop-opacity="0.63"/>
<stop offset="0.557575" stop-color="#1FF1E3" stop-opacity="0.62"/>
<stop offset="1" stop-color="#8135F9"/>
</linearGradient>
</defs>
</svg>
